<?xml version="1.0" standalone="no"?>
<!DOCTYPE svg PUBLIC "-//W3C//DTD SVG 20010904//EN"
 "http://www.w3.org/TR/2001/REC-SVG-20010904/DTD/svg10.dtd">
<svg version="1.0" xmlns="http://www.w3.org/2000/svg"
 width="772.000000pt" height="772.000000pt" viewBox="0 0 772.000000 772.000000"
 preserveAspectRatio="xMidYMid meet">
<metadata>
Created by potrace 1.11, written by Peter Selinger 2001-2013
</metadata>
<g transform="translate(0.000000,772.000000) scale(0.100000,-0.100000)"
fill="#000000" stroke="none">
<path d="M3639 7716 c-2 -2 -46 -6 -96 -10 -171 -11 -403 -49 -598 -97 -44
-11 -89 -22 -101 -24 -12 -3 -79 -23 -150 -46 -850 -272 -1572 -819 -2060
-1562 -213 -324 -383 -696 -490 -1072 -14 -49 -28 -101 -31 -115 -2 -14 -10
-50 -18 -80 -7 -30 -16 -68 -19 -85 -12 -72 -26 -152 -31 -175 -3 -14 -7 -49
-11 -78 -3 -29 -7 -62 -9 -72 -26 -136 -26 -720 0 -881 2 -13 6 -46 10 -74 5
-43 14 -100 39 -235 8 -47 46 -205 61 -260 9 -30 18 -64 20 -74 17 -75 125
-369 185 -501 49 -109 160 -322 191 -367 11 -14 19 -29 19 -32 0 -12 147 -229
223 -331 209 -280 519 -589 778 -778 225 -164 398 -268 634 -383 180 -87 497
-210 591 -228 10 -2 39 -11 64 -19 25 -8 63 -18 85 -23 22 -4 45 -8 50 -10 6
-1 64 -14 130 -28 123 -25 162 -32 243 -42 26 -3 58 -7 72 -9 179 -26 742 -26
876 -1 10 2 44 7 75 10 31 4 65 8 75 10 11 2 39 7 64 11 78 13 82 14 215 44
171 38 463 128 538 166 16 8 34 15 38 15 13 0 203 86 304 137 484 247 935 613
1260 1023 33 41 62 77 65 80 15 14 155 219 215 315 89 142 236 434 302 600
104 264 177 528 228 830 2 17 7 55 11 85 3 30 8 63 10 73 11 61 19 243 18 452
0 213 -4 306 -19 425 -3 19 -7 53 -10 75 -13 107 -49 294 -85 434 -34 138
-119 402 -155 486 -55 128 -145 320 -173 370 -19 33 -50 89 -70 125 -45 82
-193 306 -262 396 -213 277 -469 534 -735 739 -105 81 -325 228 -410 275 -33
18 -64 36 -70 40 -15 11 -178 93 -270 135 -216 100 -506 196 -765 254 -116 26
-109 25 -308 56 -13 2 -53 7 -90 10 -37 4 -78 9 -92 11 -30 6 -556 15 -561 10z"/>
</g>
</svg>
