<?xml version="1.0" standalone="no"?>
<!DOCTYPE svg PUBLIC "-//W3C//DTD SVG 20010904//EN"
 "http://www.w3.org/TR/2001/REC-SVG-20010904/DTD/svg10.dtd">
<svg version="1.0" xmlns="http://www.w3.org/2000/svg"
 width="608.000000pt" height="608.000000pt" viewBox="0 0 608.000000 608.000000"
 preserveAspectRatio="xMidYMid meet">
<metadata>
Created by potrace 1.11, written by Peter Selinger 2001-2013
</metadata>
<g transform="translate(0.000000,608.000000) scale(0.100000,-0.100000)"
fill="#000000" stroke="none">
<path d="M2848 6075 c-1 -1 -39 -6 -83 -9 -85 -6 -95 -8 -245 -32 -283 -46
-636 -165 -896 -304 -95 -51 -266 -154 -314 -190 -19 -15 -71 -53 -115 -86
-176 -130 -371 -321 -529 -519 -374 -467 -598 -1022 -653 -1620 -15 -157 -8
-529 12 -662 3 -18 7 -45 9 -60 12 -83 27 -162 35 -191 5 -18 10 -35 10 -37
-1 -46 125 -443 169 -532 5 -10 40 -80 78 -157 330 -665 905 -1191 1600 -1464
144 -56 400 -134 439 -133 2 0 19 -5 37 -10 29 -8 108 -23 191 -35 15 -2 42
-6 60 -9 173 -26 619 -27 767 -1 14 3 48 7 75 11 28 3 57 8 65 10 8 2 33 6 54
10 40 6 188 40 241 56 535 158 961 409 1344 790 18 17 109 116 156 170 27 29
75 93 185 239 75 99 220 362 298 540 86 194 186 549 207 736 3 27 8 60 10 74
13 74 20 196 20 375 0 233 -10 354 -41 530 -96 535 -325 1023 -672 1435 -100
119 -178 198 -348 351 -139 125 -391 293 -599 399 -266 135 -619 253 -855 285
-25 3 -52 8 -60 10 -8 2 -40 7 -70 10 -30 3 -68 8 -85 10 -34 6 -491 15 -497
10z"/>
</g>
</svg>
